<svg width="41" height="36" viewBox="0 0 41 36" fill="none" xmlns="http://www.w3.org/2000/svg">
<path d="M36.9392 17.3219L20.551 33.7254L4.38615 17.325C2.90439 15.6127 1.91113 13.5267 1.91113 11.2429C1.91113 6.01474 6.20674 1.75 11.5385 1.75C13.1079 1.75 14.6326 2.50406 16.0545 3.73672C17.4712 4.96491 18.6827 6.58187 19.5932 8.08008L20.6614 9.8379L21.7296 8.08008C22.6401 6.58187 23.8516 4.96491 25.2683 3.73672C26.6902 2.50406 28.215 1.75 29.7843 1.75C35.1161 1.75 39.4117 6.01474 39.4117 11.2429C39.4117 13.5252 38.4195 15.6101 36.9392 17.3219Z" stroke="#333333" stroke-width="2.5" stroke-linecap="round"/>
</svg>
