<svg width="50" height="20" viewBox="0 0 50 20" fill="none" xmlns="http://www.w3.org/2000/svg">
<path d="M24.13 13.497V2.07647C24.13 1.62002 24.5 1.25 24.9564 1.25C25.4129 1.25 25.7829 1.62002 25.7829 2.07647V13.497C25.7829 13.9535 25.4129 14.3235 24.9564 14.3235C24.5 14.3235 24.13 13.9535 24.13 13.497ZM41.1122 17.51L46.8225 7.61944C47.0507 7.22414 47.5562 7.08871 47.9515 7.31693C48.3468 7.54515 48.4822 8.05061 48.254 8.44591L42.5437 18.3364C42.3155 18.7317 41.81 18.8672 41.4147 18.6389C41.0194 18.4107 40.884 17.9052 41.1122 17.51ZM7.36921 18.3364L1.65892 8.44591C1.4307 8.05061 1.56614 7.54515 1.96143 7.31693C2.35673 7.08871 2.86219 7.22415 3.09041 7.61944L8.8007 17.51C9.02892 17.9052 8.89348 18.4107 8.49819 18.6389C8.1029 18.8671 7.59744 18.7317 7.36921 18.3364Z" stroke="#333333" stroke-width="2.5" stroke-linejoin="round"/>
</svg>
