<svg width="30" height="30" viewBox="0 0 30 30" fill="none" xmlns="http://www.w3.org/2000/svg">
<path d="M21.325 19.575L20.4602 18.422L19.4411 19.4411C18.8311 20.0511 18.1545 20.4977 17.4073 20.7946C16.6444 21.0976 15.845 21.25 15 21.25C13.2553 21.25 11.8049 20.6496 10.5776 19.4224C9.35041 18.1951 8.75 16.7447 8.75 15C8.75 13.2553 9.35041 11.8049 10.5776 10.5776C11.8049 9.35041 13.2553 8.75 15 8.75C16.7447 8.75 18.1951 9.35041 19.4224 10.5776C20.6496 11.8049 21.25 13.2553 21.25 15V17.175C21.25 18.1265 21.5728 18.9887 22.2287 19.6833C22.9028 20.397 23.7755 20.75 24.75 20.75C25.7245 20.75 26.5972 20.397 27.2713 19.6833C27.9272 18.9887 28.25 18.1265 28.25 17.175V15C28.25 11.3255 26.9607 8.16795 24.3964 5.60362C21.8321 3.03929 18.6745 1.75 15 1.75C11.3255 1.75 8.16795 3.03929 5.60362 5.60362C3.03929 8.16795 1.75 11.3255 1.75 15C1.75 18.6745 3.03929 21.8321 5.60362 24.3964C8.16795 26.9607 11.3255 28.25 15 28.25H21.25V28.75H15C13.0877 28.75 11.307 28.3881 9.64524 27.671C7.95924 26.9435 6.5051 25.9623 5.27138 24.7286C4.03767 23.4949 3.05648 22.0408 2.32896 20.3548C1.6119 18.693 1.25 16.9123 1.25 15C1.25 13.0877 1.6119 11.307 2.32896 9.64524C3.05648 7.95924 4.03767 6.5051 5.27138 5.27138C6.5051 4.03767 7.95924 3.05648 9.64524 2.32896C11.307 1.6119 13.0877 1.25 15 1.25C16.9123 1.25 18.693 1.6119 20.3548 2.32896C22.0408 3.05648 23.4949 4.03767 24.7286 5.27138C25.9623 6.5051 26.9435 7.95924 27.671 9.64524C28.3881 11.307 28.75 13.0877 28.75 15V17.175C28.75 18.3301 28.3669 19.2712 27.5867 20.0707C26.814 20.8625 25.8948 21.25 24.75 21.25C24.0604 21.25 23.4219 21.1038 22.8195 20.8123C22.2271 20.5257 21.7323 20.1181 21.325 19.575ZM15 20.75C16.5777 20.75 17.9593 20.1835 19.0714 19.0714C20.1835 17.9593 20.75 16.5777 20.75 15C20.75 13.4223 20.1835 12.0407 19.0714 10.9286C17.9593 9.81653 16.5777 9.25 15 9.25C13.4223 9.25 12.0407 9.81653 10.9286 10.9286C9.81653 12.0407 9.25 13.4223 9.25 15C9.25 16.5777 9.81653 17.9593 10.9286 19.0714C12.0407 20.1835 13.4223 20.75 15 20.75Z" stroke="#5D6B4F" stroke-width="2.5"/>
</svg>
