<svg width="32" height="39" viewBox="0 0 32 39" fill="none" xmlns="http://www.w3.org/2000/svg">
<path d="M16 2C8.26801 2 2 8.21398 2 15.8793C2 17.3522 2.23143 18.7715 2.6602 20.1034C3.63149 23.1207 9.16422 30.4493 16 37C23.1144 30.0906 28.5628 22.5172 29.3398 20.1034C29.7686 18.7715 30 17.3522 30 15.8793C30 8.21398 23.732 2 16 2Z" stroke="#333333" stroke-width="2.5"/>
<path d="M19.6522 15.8793C19.6522 17.879 18.017 19.5 16 19.5C13.983 19.5 12.3478 17.879 12.3478 15.8793C12.3478 13.8797 13.983 12.2586 16 12.2586C18.017 12.2586 19.6522 13.8797 19.6522 15.8793Z" stroke="#333333" stroke-width="2.5"/>
</svg>
