<svg width="37" height="30" viewBox="0 0 37 30" fill="none" xmlns="http://www.w3.org/2000/svg">
<path d="M11.5385 26.1543C17.911 26.1543 23.0769 20.9883 23.0769 14.6158C23.0769 8.24329 17.911 3.07734 11.5385 3.07734C5.16594 3.07734 0 8.24329 0 14.6158C0 17.2313 0.870238 19.6436 2.33696 21.5788C2.76753 22.1469 2.94853 22.88 2.73991 23.5617L1.10372 28.9076C0.976113 29.3245 1.40606 29.6936 1.79886 29.5043L8.6244 26.2156C9.01781 26.0261 9.46162 25.9763 9.89393 26.038C10.4311 26.1146 10.9801 26.1543 11.5385 26.1543Z" fill="#FBF7F2"/>
<path fill-rule="evenodd" clip-rule="evenodd" d="M8.39603 24.191C8.7743 24.0087 9.20183 23.9553 9.61333 24.0388C10.2338 24.1648 10.8774 24.2312 11.5385 24.2312C16.8489 24.2312 21.1538 19.9262 21.1538 14.6158C21.1538 9.30538 16.8489 5.00042 11.5385 5.00042C6.22803 5.00042 1.92308 9.30538 1.92308 14.6158C1.92308 17.1413 2.89417 19.4356 4.48687 21.1527C4.95299 21.6553 5.1164 22.3679 4.9158 23.0233L4.22909 25.267C4.10148 25.6839 4.53143 26.053 4.92423 25.8638L8.39603 24.191ZM1.79886 29.5043C1.40606 29.6936 0.976113 29.3245 1.10372 28.9076L2.73991 23.5617C2.94853 22.88 2.76753 22.1469 2.33696 21.5788C0.870238 19.6436 0 17.2313 0 14.6158C0 8.24329 5.16594 3.07734 11.5385 3.07734C17.911 3.07734 23.0769 8.24329 23.0769 14.6158C23.0769 20.9883 17.911 26.1543 11.5385 26.1543C10.9801 26.1543 10.4311 26.1146 9.89393 26.038C9.46162 25.9763 9.01781 26.0261 8.6244 26.2156L1.79886 29.5043Z" fill="#333333"/>
<path d="M8.46154 14.6158C8.46154 15.4655 7.77275 16.1543 6.92308 16.1543C6.07341 16.1543 5.38461 15.4655 5.38461 14.6158C5.38461 13.7661 6.07341 13.0773 6.92308 13.0773C7.77275 13.0773 8.46154 13.7661 8.46154 14.6158Z" fill="#333333"/>
<path d="M17.6923 14.6158C17.6923 15.4655 17.0035 16.1543 16.1538 16.1543C15.3042 16.1543 14.6154 15.4655 14.6154 14.6158C14.6154 13.7661 15.3042 13.0773 16.1538 13.0773C17.0035 13.0773 17.6923 13.7661 17.6923 14.6158Z" fill="#333333"/>
<path d="M13.0769 14.6158C13.0769 15.4655 12.3881 16.1543 11.5385 16.1543C10.6888 16.1543 10 15.4655 10 14.6158C10 13.7661 10.6888 13.0773 11.5385 13.0773C12.3881 13.0773 13.0769 13.7661 13.0769 14.6158Z" fill="#333333"/>
<path d="M25.3844 23.0769C19.0119 23.0769 13.8459 17.911 13.8459 11.5385C13.8459 5.16595 19.0119 0 25.3844 0C31.7569 0 36.9229 5.16595 36.9229 11.5385C36.9229 14.154 36.0526 16.5662 34.5859 18.5015C34.1553 19.0696 33.9743 19.8027 34.1829 20.4843L35.8191 25.8302C35.9467 26.2471 35.5168 26.6162 35.124 26.427L28.2985 23.1383C27.905 22.9487 27.4612 22.8989 27.0289 22.9606C26.4918 23.0373 25.9427 23.0769 25.3844 23.0769Z" fill="#FBF7F2"/>
<path fill-rule="evenodd" clip-rule="evenodd" d="M28.5268 21.1136C28.1485 20.9314 27.721 20.8779 27.3095 20.9615C26.6891 21.0874 26.0455 21.1538 25.3844 21.1538C20.074 21.1538 15.769 16.8489 15.769 11.5385C15.769 6.22803 20.074 1.92308 25.3844 1.92308C30.6948 1.92308 34.9998 6.22803 34.9998 11.5385C34.9998 14.0639 34.0287 16.3583 32.436 18.0754C31.9699 18.5779 31.8065 19.2906 32.0071 19.946L32.6938 22.1897C32.8214 22.6066 32.3914 22.9757 31.9986 22.7864L28.5268 21.1136ZM35.124 26.427C35.5168 26.6162 35.9467 26.2471 35.8191 25.8302L34.1829 20.4843C33.9743 19.8027 34.1553 19.0696 34.5859 18.5015C36.0526 16.5662 36.9229 14.154 36.9229 11.5385C36.9229 5.16595 31.7569 0 25.3844 0C19.0119 0 13.8459 5.16595 13.8459 11.5385C13.8459 17.911 19.0119 23.0769 25.3844 23.0769C25.9427 23.0769 26.4918 23.0373 27.0289 22.9606C27.4612 22.8989 27.905 22.9487 28.2985 23.1383L35.124 26.427Z" fill="#333333"/>
<path d="M28.4613 11.5385C28.4613 12.3881 29.1501 13.0769 29.9998 13.0769C30.8494 13.0769 31.5382 12.3881 31.5382 11.5385C31.5382 10.6888 30.8494 10 29.9998 10C29.1501 10 28.4613 10.6888 28.4613 11.5385Z" fill="#333333"/>
<path d="M19.2305 11.5385C19.2305 12.3881 19.9193 13.0769 20.769 13.0769C21.6187 13.0769 22.3075 12.3881 22.3075 11.5385C22.3075 10.6888 21.6187 10 20.769 10C19.9193 10 19.2305 10.6888 19.2305 11.5385Z" fill="#333333"/>
<path d="M23.8459 11.5385C23.8459 12.3881 24.5347 13.0769 25.3844 13.0769C26.2341 13.0769 26.9229 12.3881 26.9229 11.5385C26.9229 10.6888 26.2341 10 25.3844 10C24.5347 10 23.8459 10.6888 23.8459 11.5385Z" fill="#333333"/>
</svg>
