<svg width="75" height="14" viewBox="0 0 75 14" fill="none" xmlns="http://www.w3.org/2000/svg">
<path d="M14.5 7.06914C10.9014 7.06914 7.61276 6.15056 5.09652 4.63362M14.5 7.06914V12M14.5 7.06914C18.0986 7.06914 21.3872 6.15056 23.9035 4.63362M5.09652 4.63362C3.85926 3.88773 2.80876 2.99716 2 2M5.09652 4.63362L3.42985 8.66667M27 2C26.1912 2.99716 25.1407 3.88773 23.9035 4.63362M23.9035 4.63362L27 8.66667M60.3579 7.06914C56.7593 7.06914 53.4707 6.15056 50.9544 4.63362M60.3579 7.06914V12M60.3579 7.06914C63.9565 7.06914 67.2451 6.15056 69.7614 4.63362M50.9544 4.63362C49.7172 3.88773 48.6667 2.99716 47.8579 2M50.9544 4.63362L49.2878 8.66667M72.8579 2C72.0492 2.99716 70.9986 3.88773 69.7614 4.63362M69.7614 4.63362L72.8579 8.66667" stroke="#333333" stroke-width="2.5" stroke-linecap="round"/>
</svg>
