<svg width="35" height="29" viewBox="0 0 35 29" fill="none" xmlns="http://www.w3.org/2000/svg">
<path d="M28.8207 14.7361C28.8207 14.0458 28.261 13.4861 27.5707 13.4861C26.8803 13.4861 26.3207 14.0458 26.3207 14.7361H28.8207ZM27.5707 20.4758V21.7258C28.261 21.7258 28.8207 21.1661 28.8207 20.4758H27.5707ZM7.5935 20.4758H6.3435C6.3435 21.1661 6.90314 21.7258 7.5935 21.7258V20.4758ZM8.8435 14.7361C8.8435 14.0458 8.28385 13.4861 7.5935 13.4861C6.90314 13.4861 6.3435 14.0458 6.3435 14.7361H8.8435ZM6.28082 9.17456V10.4246H7.53082V9.17456H6.28082ZM29.1119 9.17456H27.8619V10.4246H29.1119V9.17456ZM8.72945 24.9452C8.72945 24.2549 8.16981 23.6952 7.47945 23.6952C6.7891 23.6952 6.22945 24.2549 6.22945 24.9452H8.72945ZM6.22945 27C6.22945 27.6904 6.7891 28.25 7.47945 28.25C8.16981 28.25 8.72945 27.6904 8.72945 27H6.22945ZM28.5925 24.9452C28.5925 24.2549 28.0328 23.6952 27.3425 23.6952C26.6521 23.6952 26.0925 24.2549 26.0925 24.9452H28.5925ZM26.0925 27C26.0925 27.6904 26.6521 28.25 27.3425 28.25C28.0328 28.25 28.5925 27.6904 28.5925 27H26.0925ZM26.3207 14.7361V20.4758H28.8207V14.7361H26.3207ZM27.5707 19.2258H7.5935V21.7258H27.5707V19.2258ZM8.8435 20.4758V14.7361H6.3435V20.4758H8.8435ZM6.28082 23.7086C5.42168 23.7086 4.73075 23.4208 4.13492 22.8216L2.36223 24.5845C3.43116 25.6594 4.76172 26.2086 6.28082 26.2086V23.7086ZM4.13492 22.8216C3.53882 22.2222 3.25 21.5241 3.25 20.6539H0.75C0.75 22.1751 1.29357 23.5098 2.36223 24.5845L4.13492 22.8216ZM3.25 20.6539V13.4793H0.75V20.6539H3.25ZM3.25 13.4793C3.25 12.609 3.53882 11.911 4.13492 11.3115L2.36223 9.54869C1.29357 10.6233 0.75 11.958 0.75 13.4793H3.25ZM4.13492 11.3115C4.73075 10.7124 5.42168 10.4246 6.28082 10.4246V7.92456C4.76173 7.92456 3.43116 8.47379 2.36223 9.54869L4.13492 11.3115ZM7.53082 9.17456V6.30474H5.03082V9.17456H7.53082ZM7.53082 6.30474C7.53082 5.43449 7.81964 4.7364 8.41574 4.13697L6.64305 2.37413C5.57439 3.44877 5.03082 4.78347 5.03082 6.30474H7.53082ZM8.41574 4.13697C9.01157 3.5378 9.70251 3.25 10.5616 3.25V0.75C9.04255 0.75 7.71198 1.29923 6.64305 2.37413L8.41574 4.13697ZM10.5616 3.25H24.831V0.75H10.5616V3.25ZM24.831 3.25C25.6902 3.25 26.3811 3.5378 26.977 4.13697L28.7496 2.37413C27.6807 1.29923 26.3501 0.75 24.831 0.75V3.25ZM26.977 4.13697C27.5731 4.7364 27.8619 5.43449 27.8619 6.30474H30.3619C30.3619 4.78347 29.8183 3.44876 28.7496 2.37413L26.977 4.13697ZM27.8619 6.30474V9.17456H30.3619V6.30474H27.8619ZM29.1119 10.4246C29.971 10.4246 30.6619 10.7124 31.2578 11.3115L33.0305 9.54869C31.9615 8.47379 30.631 7.92456 29.1119 7.92456V10.4246ZM31.2578 11.3115C31.8539 11.911 32.1427 12.609 32.1427 13.4793H34.6427C34.6427 11.958 34.0991 10.6233 33.0305 9.54869L31.2578 11.3115ZM32.1427 13.4793V20.6539H34.6427V13.4793H32.1427ZM32.1427 20.6539C32.1427 21.5241 31.8539 22.2222 31.2578 22.8216L33.0305 24.5845C34.0991 23.5098 34.6427 22.1751 34.6427 20.6539H32.1427ZM31.2578 22.8216C30.6619 23.4208 29.971 23.7086 29.1119 23.7086V26.2086C30.631 26.2086 31.9615 25.6594 33.0305 24.5845L31.2578 22.8216ZM6.22945 24.9452V27H8.72945V24.9452H6.22945ZM26.0925 24.9452V27H28.5925V24.9452H26.0925ZM29.1119 23.7086H6.28082V26.2086H29.1119V23.7086Z" fill="#333333"/>
</svg>
