<svg width="26" height="35" viewBox="0 0 26 35" fill="none" xmlns="http://www.w3.org/2000/svg">
<path d="M1.75001 9.25008C1.56897 9.25008 1.47644 9.2025 1.38701 9.11307C1.29758 9.02364 1.25 8.93111 1.25 8.75007C1.25 8.56902 1.29758 8.4765 1.38701 8.38707C1.47644 8.29764 1.56897 8.25006 1.75001 8.25006C1.93106 8.25006 2.02359 8.29764 2.11301 8.38707C2.20244 8.4765 2.25003 8.56902 2.25003 8.75007C2.25003 8.93111 2.20244 9.02364 2.11301 9.11307C2.02359 9.2025 1.93106 9.25008 1.75001 9.25008ZM6.12505 5.75005C5.944 5.75005 5.85148 5.70247 5.76205 5.61304C5.67262 5.52361 5.62503 5.43109 5.62503 5.25004V4.37503C5.62503 4.19399 5.67262 4.10146 5.76205 4.01203C5.85148 3.9226 5.944 3.87502 6.12505 3.87502C6.30609 3.87502 6.39862 3.9226 6.48805 4.01203C6.57748 4.10146 6.62506 4.19399 6.62506 4.37503V5.25004C6.62506 5.43109 6.57748 5.52361 6.48805 5.61304C6.39862 5.70247 6.30609 5.75005 6.12505 5.75005ZM11.3751 4.00004C11.194 4.00004 11.1015 3.95246 11.0121 3.86303C10.9227 3.7736 10.8751 3.68107 10.8751 3.50003V2.62502C10.8751 2.44397 10.9227 2.35145 11.0121 2.26202C11.1015 2.17259 11.194 2.12501 11.3751 2.12501C11.5561 2.12501 11.6487 2.17259 11.7381 2.26202C11.8275 2.35145 11.8751 2.44397 11.8751 2.62502V3.50003C11.8751 3.68107 11.8275 3.7736 11.7381 3.86303C11.6487 3.95246 11.5561 4.00004 11.3751 4.00004ZM16.6251 4.00004C16.4441 4.00004 16.3516 3.95246 16.2621 3.86303C16.1727 3.7736 16.1251 3.68107 16.1251 3.50003V1.75001C16.1251 1.56897 16.1727 1.47644 16.2621 1.38701C16.3516 1.29758 16.4441 1.25 16.6251 1.25C16.8062 1.25 16.8987 1.29758 16.9881 1.38701C17.0776 1.47644 17.1251 1.56897 17.1251 1.75001V3.50003C17.1251 3.68107 17.0776 3.7736 16.9881 3.86303C16.8987 3.95246 16.8062 4.00004 16.6251 4.00004ZM22.7502 5.75005C22.3487 5.75005 22.048 5.62388 21.7747 5.35054C21.5013 5.0772 21.3752 4.77647 21.3752 4.37503V2.62502C21.3752 2.22358 21.5013 1.92285 21.7747 1.64951C22.048 1.37618 22.3487 1.25 22.7502 1.25C23.1516 1.25 23.4523 1.37618 23.7257 1.64951C23.999 1.92285 24.1252 2.22359 24.1252 2.62502V4.37503C24.1252 4.77647 23.999 5.0772 23.7257 5.35054C23.4523 5.62388 23.1516 5.75005 22.7502 5.75005ZM9.62507 33.75C8.03421 33.75 6.70346 33.1981 5.56517 32.0599C4.42688 30.9216 3.87502 29.5908 3.87502 27.9999V17.4999C3.87502 14.9109 4.76683 12.7508 6.57143 10.9462C8.37603 9.14159 10.5361 8.24978 13.1251 8.24978H16.3189C18.0188 8.24978 19.4295 8.81023 20.621 9.94088C21.7996 11.0594 22.3752 12.4005 22.3752 14.0436C22.3752 15.1496 22.0846 16.1487 21.4987 17.0694C20.9133 17.9893 20.1256 18.6854 19.1097 19.1698C17.9641 19.7076 17.044 20.5168 16.3755 21.5827C15.7104 22.6432 15.3751 23.8142 15.3751 25.0687V27.9999C15.3751 29.6296 14.8238 30.9648 13.7069 32.0817C12.5899 33.1987 11.2547 33.75 9.62507 33.75Z" stroke="#333333" stroke-width="2.5"/>
</svg>
