<svg width="57" height="27" viewBox="0 0 57 27" fill="none" xmlns="http://www.w3.org/2000/svg">
<path d="M46.6611 26.3599C44.7411 26.3599 42.9531 26.0479 41.2971 25.4239C39.6651 24.7759 38.2371 23.8759 37.0131 22.7239C35.8131 21.5479 34.8771 20.1679 34.2051 18.5839C33.5331 16.9999 33.1971 15.2719 33.1971 13.3999C33.1971 11.5279 33.5331 9.79994 34.2051 8.21594C34.8771 6.63194 35.8251 5.26394 37.0491 4.11194C38.2731 2.93594 39.7011 2.03594 41.3331 1.41194C42.9651 0.763942 44.7531 0.439941 46.6971 0.439941C48.7611 0.439941 50.6451 0.799942 52.3491 1.51994C54.0531 2.21594 55.4931 3.25994 56.6691 4.65194L53.6451 7.49594C52.7331 6.51194 51.7131 5.77994 50.5851 5.29994C49.4571 4.79594 48.2331 4.54394 46.9131 4.54394C45.5931 4.54394 44.3811 4.75994 43.2771 5.19194C42.1971 5.62394 41.2491 6.23594 40.4331 7.02794C39.6411 7.81994 39.0171 8.75594 38.5611 9.83594C38.1291 10.9159 37.9131 12.1039 37.9131 13.3999C37.9131 14.6959 38.1291 15.8839 38.5611 16.9639C39.0171 18.0439 39.6411 18.9799 40.4331 19.7719C41.2491 20.5639 42.1971 21.1759 43.2771 21.6079C44.3811 22.0399 45.5931 22.2559 46.9131 22.2559C48.2331 22.2559 49.4571 22.0159 50.5851 21.5359C51.7131 21.0319 52.7331 20.2759 53.6451 19.2679L56.6691 22.1479C55.4931 23.5159 54.0531 24.5599 52.3491 25.2799C50.6451 25.9999 48.7491 26.3599 46.6611 26.3599Z" fill="#5D6B4F"/>
<path d="M0.614258 26V0.800049H4.46626L15.4823 19.196H13.4663L24.3023 0.800049H28.1543L28.1903 26H23.7623L23.7263 7.74805H24.6623L15.4463 23.12H13.3583L3.99826 7.74805H5.07826V26H0.614258Z" fill="#5D6B4F"/>
</svg>
