<svg width="20" height="19" viewBox="0 0 20 19" fill="none" xmlns="http://www.w3.org/2000/svg">
<path d="M7.31578 6.13537L9.54192 1.04704C9.71668 0.647583 10.2833 0.647582 10.4581 1.04704L12.6842 6.13537C12.7559 6.29911 12.9095 6.41216 13.0871 6.4319L18.8555 7.07283C19.2902 7.12113 19.4577 7.66479 19.1257 7.9494L14.6459 11.7892C14.4963 11.9175 14.436 12.1216 14.4918 12.3106L16.0616 17.6195C16.1888 18.0499 15.7286 18.417 15.3373 18.1972L10.245 15.3376C10.0929 15.2522 9.90717 15.2522 9.75507 15.3378L4.6718 18.1971C4.28081 18.417 3.82041 18.0506 3.94699 17.6202L5.50875 12.3103C5.56428 12.1214 5.50389 11.9176 5.35446 11.7895L0.874306 7.94941C0.542261 7.6648 0.709831 7.12113 1.14449 7.07283L6.91291 6.4319C7.09055 6.41216 7.24414 6.29911 7.31578 6.13537Z" fill="#5D6B4F" stroke="#5D6B4F"/>
</svg>
