<svg width="47" height="44" viewBox="0 0 47 44" fill="none" xmlns="http://www.w3.org/2000/svg">
<path d="M2 20.1818C2 32.2317 11.7683 42 23.8182 42C35.868 42 45.6364 32.2317 45.6364 20.1818C45.6364 10.1403 37.4961 2 27.4545 2C17.413 2 9.27273 10.1403 9.27273 20.1818C9.27273 28.2151 15.7849 34.7273 23.8182 34.7273C31.8514 34.7273 38.3636 28.2151 38.3636 20.1818C38.3636 14.1569 33.4795 9.27273 27.4545 9.27273C21.4296 9.27273 16.5455 14.1569 16.5455 20.1818C16.5455 24.1984 19.8016 27.4545 23.8182 27.4545C27.8348 27.4545 31.0909 24.1984 31.0909 20.1818C31.0909 18.1735 29.4629 16.5455 27.4545 16.5455C25.4462 16.5455 23.8182 18.1735 23.8182 20.1818" stroke="#333333" stroke-width="2.5" stroke-linecap="round"/>
</svg>
